<svg width="14" height="16" viewBox="0 0 14 16" fill="none" xmlns="http://www.w3.org/2000/svg">
<path d="M13.4108 1.90259L7.13475 0.0197813C7.04697 -0.00659375 6.95325 -0.00659375 6.86538 0.0197813L0.589312 1.90259C0.39103 1.96206 0.255249 2.14456 0.255249 2.35156V9.25519C0.255249 10.1531 0.618749 11.0723 1.33566 11.9872C1.88322 12.686 2.64072 13.3876 3.58716 14.0727C5.17706 15.2236 6.74262 15.9296 6.8085 15.9591C6.86944 15.9863 6.93472 16 7.00003 16C7.06531 16 7.13063 15.9864 7.19156 15.9591C7.25744 15.9296 8.82297 15.2236 10.4129 14.0727C11.3593 13.3876 12.1168 12.686 12.6643 11.9872C13.3813 11.0723 13.7448 10.1532 13.7448 9.25519V2.35156C13.7448 2.14456 13.609 1.96206 13.4108 1.90259ZM12.8073 9.25519C12.8073 10.8443 11.2128 12.3344 9.87522 13.3046C8.67603 14.1744 7.45988 14.7916 7.00006 15.0133C6.54025 14.7916 5.32406 14.1744 4.12487 13.3046C2.78725 12.3344 1.19275 10.8443 1.19275 9.25519V2.70031L7.00003 0.958125L12.8073 2.70031V9.25519Z" fill="black"/>
<path d="M9.45179 5.97487L6.84543 8.51969L5.52191 7.2278C5.3662 7.07545 5.11683 7.07731 4.96312 7.23165C4.80952 7.38611 4.8089 7.63548 4.96188 7.79056L4.96721 7.79577L6.5679 9.35874C6.72223 9.50936 6.9685 9.50936 7.12272 9.35874L10.0064 6.54321C10.1623 6.38987 10.1648 6.13938 10.0122 5.98293C9.85934 5.82649 9.60898 5.82301 9.45179 5.97512V5.97487Z" fill="black"/>
</svg>
