<svg xmlns="http://www.w3.org/2000/svg" width="17" height="16" viewBox="0 0 17 16" fill="none">
    <path
        d="M4.40845 1.41666C5.90845 1.58331 7.15836 2.66665 8.32504 4.08333C9.49169 2.66665 10.8333 1.41666 12.4999 1.41666C14.6666 1.41666 15.6547 3.38254 15.4084 5.05399C15.1584 6.74999 14.4998 7 11.5751 10.5833L8.74179 13.9167C8.18919 14.5053 8.46103 14.5053 7.90845 13.9167L6.90845 12.6667L6.07504 11.6667L5.15845 10.5833C2.08314 7 1.37021 6.08333 1.24978 5.05399C0.999725 2.91668 2.4165 1.19535 4.40845 1.41666Z"
        fill="url(#paint0_linear_111_38272)" />
    <path
        d="M12.5 0.15918C10.7641 0.15918 9.45052 1.17794 8.33333 2.24251C7.26876 1.11283 5.90262 0.15918 4.16667 0.15918C1.72187 0.15918 0 2.26125 0 4.55346C0 5.78314 0.503649 6.66909 1.0552 7.50085L7.53072 15.2644C8.25782 16.0337 8.3948 16.0337 9.12187 15.2644L15.612 7.50085C16.2604 6.66909 16.6667 5.78314 16.6667 4.55346C16.6667 2.26128 14.9448 0.15918 12.5 0.15918ZM14.5833 7.28524L8.33333 14.7425L2.08333 7.25449C1.33595 6.21544 1.04167 5.51441 1.04167 4.55346C1.04167 2.76283 2.32032 1.15085 4.16667 1.13573C5.68543 1.12323 7.40678 2.67427 8.33333 3.84355C9.23543 2.7149 10.9812 1.13573 12.5 1.13573C14.2974 1.13573 15.625 2.76283 15.625 4.55346C15.625 5.51441 15.3922 6.26751 14.5833 7.28524Z"
        fill="black" />
    <defs>
        <linearGradient id="paint0_linear_111_38272" x1="-6.69101" y1="-7.60303" x2="18.0742"
            y2="-4.37374" gradientUnits="userSpaceOnUse">
            <stop stop-color="#F64D4D" />
            <stop offset="1" stop-color="#4D5EF6" />
        </linearGradient>
    </defs>
</svg>